<?xml version="1.0" standalone="no"?>
<!DOCTYPE svg PUBLIC "-//W3C//DTD SVG 20010904//EN"
 "http://www.w3.org/TR/2001/REC-SVG-20010904/DTD/svg10.dtd">
<svg version="1.0" xmlns="http://www.w3.org/2000/svg"
 width="1536.000000pt" height="1024.000000pt" viewBox="0 0 1536.000000 1024.000000"
 preserveAspectRatio="xMidYMid meet">

<g transform="translate(0.000000,1024.000000) scale(0.100000,-0.100000)"
fill="#000000" stroke="none">
<path d="M2374 6464 c-22 -8 -51 -24 -62 -35 -49 -45 -50 -44 401 -523 232
-247 423 -452 424 -455 1 -3 -142 -85 -317 -182 l-319 -176 -108 70 c-59 39
-162 105 -228 148 -156 101 -182 112 -266 107 -51 -3 -75 -10 -108 -31 -36
-24 -41 -32 -41 -66 0 -29 9 -50 37 -87 39 -51 184 -225 297 -356 l66 -76 -49
-41 c-84 -70 -89 -141 -12 -175 20 -9 83 -22 140 -29 l105 -12 71 -175 c80
-196 106 -250 129 -270 39 -32 148 -2 189 52 25 34 36 130 37 321 0 117 3 159
13 161 54 16 648 226 724 256 54 21 101 35 105 31 6 -6 51 -117 342 -858 120
-303 130 -319 199 -310 53 7 116 51 133 93 15 36 26 242 54 1049 7 176 14 330
16 342 3 16 35 38 122 84 627 331 703 377 842 519 138 140 175 249 120 350
-57 102 -172 150 -359 151 -234 0 -371 -48 -821 -291 -124 -67 -266 -143 -317
-170 l-91 -49 -324 163 c-360 180 -924 455 -972 473 -42 16 -122 14 -172 -3z"/>
<path d="M8966 6285 c-176 -45 -312 -185 -361 -371 -19 -74 -19 -242 0 -314
33 -126 119 -244 222 -307 114 -70 325 -90 469 -45 87 27 179 92 225 158 57
84 72 136 77 277 l4 127 -231 0 -231 0 0 -85 c0 -47 0 -88 0 -91 0 -4 52 -6
116 -5 l116 2 -7 -33 c-21 -101 -76 -158 -174 -179 -142 -30 -270 31 -333 159
-31 63 -33 72 -33 177 1 134 24 205 90 270 57 58 123 79 227 73 67 -4 85 -9
120 -34 23 -16 51 -48 62 -71 l21 -42 118 -1 c136 0 138 2 112 79 -36 109
-113 187 -237 238 -54 23 -80 27 -188 29 -86 3 -143 -1 -184 -11z"/>
<path d="M12080 6284 c-144 -39 -236 -138 -247 -266 -8 -78 11 -139 59 -193
50 -57 131 -97 285 -139 195 -54 238 -87 229 -176 -8 -88 -102 -128 -237 -99
-61 13 -105 49 -123 102 -7 21 -16 38 -19 38 -4 -1 -55 -1 -113 -1 l-107 0 7
-51 c17 -123 104 -212 246 -253 135 -37 295 -28 405 23 82 38 119 72 151 137
22 45 27 69 27 127 -1 168 -84 246 -344 322 -67 20 -138 43 -156 50 -102 43
-113 143 -20 192 42 22 160 22 203 0 39 -20 53 -37 69 -84 7 -21 18 -38 24
-37 6 1 54 2 107 3 l97 1 -7 46 c-17 130 -104 224 -238 260 -68 18 -228 17
-298 -2z"/>
<path d="M6400 5766 l0 -526 120 0 120 0 0 205 0 205 200 0 200 0 0 95 0 95
-200 0 -200 0 0 125 0 126 228 -1 227 -1 0 98 0 98 -347 3 -348 4 0 -526z"/>
<path d="M7289 6282 c-1 -4 -2 -240 -2 -524 l-2 -518 348 0 347 0 0 95 0 95
-227 2 -228 3 -5 425 -5 425 -112 2 c-62 0 -113 -2 -114 -5z"/>
<path d="M8160 5765 l0 -525 110 0 110 0 0 523 0 522 -110 2 -110 3 0 -525z"/>
<path d="M9810 5765 l0 -525 118 0 118 0 -1 215 -2 215 224 0 223 0 0 -215 0
-215 115 0 115 0 0 524 0 524 -115 1 -115 1 0 -210 0 -210 -222 2 -223 3 -1
205 -1 204 -117 3 -116 2 0 -524z"/>
<path d="M10870 6188 l0 -103 157 0 158 0 0 -423 0 -422 118 0 117 0 0 425 0
426 148 -2 147 -1 0 98 0 99 -422 3 -423 3 0 -103z"/>
<path d="M12808 5783 c-2 -5 -3 -46 -3 -93 l0 -85 231 -3 231 -2 7 61 c3 34 6
77 6 95 l0 34 -234 0 c-129 0 -236 -3 -238 -7z"/>
<path d="M10916 4884 c-382 -92 -519 -624 -236 -918 103 -108 223 -156 390
-156 325 0 544 238 528 575 -10 208 -102 362 -268 449 -120 64 -279 83 -414
50z m250 -201 c68 -23 144 -101 174 -178 33 -84 33 -224 0 -310 -70 -182 -298
-246 -459 -127 -104 77 -147 273 -95 430 54 160 218 240 380 185z"/>
<path d="M7178 4882 l-108 -3 0 -204 0 -205 -215 0 -215 0 0 205 0 205 -120 0
-120 0 0 -525 0 -525 120 0 120 0 0 225 0 225 215 0 215 0 0 -225 0 -225 115
0 115 0 0 524 c0 289 -3 526 -7 528 -5 2 -56 2 -115 0z"/>
<path d="M8308 4882 l-107 -3 -3 -367 -3 -367 -28 -47 c-38 -66 -73 -82 -172
-83 -96 0 -145 20 -180 74 -40 60 -44 109 -45 459 l0 332 -116 0 -116 0 4
-372 c5 -417 8 -439 72 -533 43 -62 118 -116 196 -142 77 -25 284 -25 356 0
112 39 192 115 236 225 22 55 23 69 26 436 2 208 -1 382 -5 385 -4 3 -56 5
-115 3z"/>
<path d="M10223 4882 l-103 -3 0 -524 0 -525 115 0 115 0 -2 527 c-2 341 -7
527 -13 527 -5 1 -56 0 -112 -2z"/>
<path d="M8670 4355 l0 -526 288 3 c285 3 287 3 342 29 74 35 111 67 144 129
37 67 45 154 22 232 -13 44 -26 65 -62 97 -26 23 -65 46 -88 52 l-41 11 45 23
c59 30 96 70 115 124 19 54 19 94 0 157 -21 69 -65 118 -143 156 l-66 33 -278
3 -278 3 0 -526z m464 334 c59 -16 86 -49 86 -104 0 -107 -45 -135 -214 -135
l-116 0 0 125 0 125 103 0 c56 0 119 -5 141 -11z m30 -423 c71 -30 103 -116
69 -183 -32 -61 -77 -77 -220 -82 l-123 -3 0 141 0 141 120 0 c80 0 132 -5
154 -14z"/>
<path d="M9702 4060 c-40 -25 -72 -75 -72 -115 0 -98 112 -165 200 -120 70 36
95 109 61 179 -35 72 -120 98 -189 56z"/>
</g>
</svg>
